<?xml version="1.0" encoding="UTF-8"?> <svg xmlns="http://www.w3.org/2000/svg" width="230" height="59" viewBox="0 0 230 59" fill="none"> <g clip-path="url(#clip0_865_5548)"> <g filter="url(#filter0_f_865_5548)"> <rect x="7.9541" y="8.50134" width="43.1855" height="43.1855" rx="21.5928" fill="#587DFF"></rect> </g> <rect x="54.7246" y="54.59" width="43.1855" height="43.1855" rx="21.5928" transform="rotate(180 54.7246 54.59)" fill="url(#paint0_linear_865_5548)"></rect> <rect x="53.4131" y="47.5957" width="43.1855" height="43.1855" rx="21.5928" transform="rotate(180 53.4131 47.5957)" fill="url(#paint1_linear_865_5548)"></rect> <g opacity="0.6"> <rect x="50.0029" y="54.4144" width="46.3676" height="46.3676" rx="23.1838" transform="rotate(180 50.0029 54.4144)" fill="white"></rect> <rect x="50.0029" y="54.4144" width="46.3676" height="46.3676" rx="23.1838" transform="rotate(180 50.0029 54.4144)" fill="url(#paint2_linear_865_5548)" fill-opacity="0.8"></rect> </g> <rect x="7.9541" y="8.50134" width="43.1855" height="43.1855" rx="21.5928" fill="#141414"></rect> <path d="M35.3406 38.3104C34.151 39.4619 32.8522 39.2801 31.6019 38.7347C30.2788 38.1771 29.0649 38.1529 27.669 38.7347C25.9211 39.4861 24.9985 39.268 23.9546 38.3104C18.031 32.2137 18.905 22.9292 25.6297 22.5898C27.2684 22.6747 28.4095 23.4868 29.3684 23.5595C30.8008 23.2686 32.1724 22.4323 33.7019 22.5414C35.5348 22.6868 36.9186 23.4141 37.829 24.7231C34.0418 26.9897 34.94 31.9713 38.4116 33.3652C37.7197 35.1833 36.8215 36.9893 35.3285 38.3225L35.3406 38.3104Z" fill="white"></path> <path d="M24.0715 38.3104C25.2611 39.4619 26.5599 39.2801 27.8102 38.7347C29.1333 38.1771 30.3472 38.1529 31.7431 38.7347C33.4911 39.4861 34.4136 39.268 35.4575 38.3104C41.3811 32.2137 40.5072 22.9292 33.7824 22.5898C32.1437 22.6747 31.0026 23.4868 30.0437 23.5595C28.6113 23.2686 27.2397 22.4323 25.7102 22.5414C23.8773 22.6868 22.4935 23.4141 21.5831 24.7231C25.3703 26.9897 24.4721 31.9713 21.0005 33.3652C21.6924 35.1833 22.5906 36.9893 24.0837 38.3225L24.0715 38.3104Z" fill="white"></path> <path d="M25.0106 17.3924C24.8285 20.0953 27.0256 22.3255 29.5504 22.5437C29.9024 19.4166 26.71 17.0894 25.0106 17.3924Z" fill="white"></path> <path d="M82.2551 11.9639C85.1319 11.9639 87.3094 12.6156 88.7875 13.9189C90.2816 15.2222 91.0286 17.1295 91.0286 19.6408V19.9507C91.0286 22.462 90.2816 24.3693 88.7875 25.6726C87.3094 26.96 85.1319 27.6038 82.2551 27.6038H74.6974V11.9639H82.2551ZM82.2551 24.9335C84.1941 24.9335 85.6326 24.5282 86.5703 23.7176C87.5239 22.907 88.0008 21.6673 88.0008 19.9984V19.617C88.0008 16.2951 86.0776 14.6342 82.2312 14.6342H77.6775V24.9335H82.2551ZM100.569 27.8899C99.1069 27.8899 97.8354 27.6514 96.7546 27.1746C95.6738 26.6819 94.8393 25.9826 94.2513 25.0766C93.6791 24.1706 93.393 23.1057 93.393 21.8819V21.5243C93.393 20.2845 93.6791 19.2117 94.2513 18.3057C94.8234 17.3838 95.6499 16.6766 96.7307 16.1838C97.8115 15.6911 99.091 15.4448 100.569 15.4448C102.031 15.4448 103.295 15.6911 104.36 16.1838C105.425 16.6766 106.243 17.3838 106.816 18.3057C107.388 19.2117 107.674 20.2845 107.674 21.5243V21.8819C107.674 23.1057 107.388 24.1706 106.816 25.0766C106.243 25.9826 105.425 26.6819 104.36 27.1746C103.295 27.6514 102.031 27.8899 100.569 27.8899ZM100.545 25.2673C101.849 25.2673 102.866 24.9733 103.597 24.3852C104.344 23.7812 104.718 22.9468 104.718 21.8819V21.5243C104.718 20.4276 104.352 19.5772 103.621 18.9733C102.89 18.3693 101.865 18.0673 100.545 18.0673C99.1943 18.0673 98.1533 18.3693 97.4221 18.9733C96.7069 19.5613 96.3493 20.4117 96.3493 21.5243V21.8819C96.3493 22.9468 96.7148 23.7812 97.446 24.3852C98.193 24.9733 99.2261 25.2673 100.545 25.2673ZM117.582 15.4448C119.664 15.4448 121.237 15.9693 122.302 17.0183C123.383 18.0673 123.923 19.609 123.923 21.6435V27.6038H121.062V21.6435C121.062 20.4832 120.737 19.6011 120.085 18.9971C119.449 18.3772 118.519 18.0673 117.295 18.0673C116.453 18.0673 115.682 18.266 114.983 18.6633C114.299 19.0448 113.783 19.5693 113.433 20.2368V27.6038H110.572V15.7309H113.242L113.338 17.0183C114.434 16.0011 115.849 15.4765 117.582 15.4448ZM129.62 27.8899C129.095 27.8899 128.666 27.7309 128.332 27.413C128.015 27.0951 127.856 26.6819 127.856 26.1733C127.856 25.6647 128.015 25.2514 128.332 24.9335C128.666 24.6157 129.095 24.4567 129.62 24.4567C130.144 24.4567 130.566 24.6157 130.883 24.9335C131.217 25.2514 131.384 25.6647 131.384 26.1733C131.384 26.6819 131.217 27.0951 130.883 27.413C130.566 27.7309 130.144 27.8899 129.62 27.8899ZM138.441 15.7309V27.6038H135.58V15.7309H138.441ZM137.01 14.1097C136.454 14.1097 136.001 13.9428 135.651 13.609C135.302 13.2752 135.127 12.8461 135.127 12.3216C135.127 11.813 135.302 11.3918 135.651 11.058C136.001 10.7242 136.454 10.5573 137.01 10.5573C137.567 10.5573 138.019 10.7242 138.369 11.058C138.719 11.3759 138.894 11.7971 138.894 12.3216C138.894 12.8461 138.719 13.2752 138.369 13.609C138.019 13.9428 137.567 14.1097 137.01 14.1097ZM152.224 11.9639C154.02 11.9639 155.435 12.401 156.468 13.2752C157.517 14.1335 158.041 15.3097 158.041 16.8037V17.066C158.041 18.56 157.517 19.7441 156.468 20.6183C155.435 21.4766 154.02 21.9057 152.224 21.9057H145.429V27.6038H142.449V11.9639H152.224ZM152.153 19.2355C153.074 19.2355 153.782 19.0527 154.274 18.6872C154.767 18.3057 155.013 17.7653 155.013 17.066V16.8037C155.013 16.1044 154.767 15.5719 154.274 15.2063C153.782 14.8249 153.074 14.6342 152.153 14.6342H145.429V19.2355H152.153ZM168.081 15.4448C170.147 15.4448 171.721 15.9693 172.802 17.0183C173.882 18.0673 174.423 19.609 174.423 21.6435V27.6038H171.562V21.6435C171.562 20.4832 171.236 19.6011 170.584 18.9971C169.949 18.3772 169.019 18.0673 167.795 18.0673C166.953 18.0673 166.182 18.266 165.482 18.6633C164.799 19.0607 164.282 19.5931 163.933 20.2607V27.6038H161.072V11.0103H163.933V16.9229C165.061 15.9375 166.444 15.4448 168.081 15.4448ZM184.339 27.8899C182.877 27.8899 181.605 27.6514 180.525 27.1746C179.444 26.6819 178.609 25.9826 178.021 25.0766C177.449 24.1706 177.163 23.1057 177.163 21.8819V21.5243C177.163 20.2845 177.449 19.2117 178.021 18.3057C178.594 17.3838 179.42 16.6766 180.501 16.1838C181.582 15.6911 182.861 15.4448 184.339 15.4448C185.801 15.4448 187.065 15.6911 188.13 16.1838C189.195 16.6766 190.013 17.3838 190.586 18.3057C191.158 19.2117 191.444 20.2845 191.444 21.5243V21.8819C191.444 23.1057 191.158 24.1706 190.586 25.0766C190.013 25.9826 189.195 26.6819 188.13 27.1746C187.065 27.6514 185.801 27.8899 184.339 27.8899ZM184.315 25.2673C185.619 25.2673 186.636 24.9733 187.367 24.3852C188.114 23.7812 188.488 22.9468 188.488 21.8819V21.5243C188.488 20.4276 188.122 19.5772 187.391 18.9733C186.66 18.3693 185.635 18.0673 184.315 18.0673C182.964 18.0673 181.923 18.3693 181.192 18.9733C180.477 19.5613 180.119 20.4117 180.119 21.5243V21.8819C180.119 22.9468 180.485 23.7812 181.216 24.3852C181.963 24.9733 182.996 25.2673 184.315 25.2673ZM201.352 15.4448C203.434 15.4448 205.007 15.9693 206.072 17.0183C207.153 18.0673 207.693 19.609 207.693 21.6435V27.6038H204.832V21.6435C204.832 20.4832 204.507 19.6011 203.855 18.9971C203.219 18.3772 202.289 18.0673 201.065 18.0673C200.223 18.0673 199.452 18.266 198.753 18.6633C198.069 19.0448 197.553 19.5693 197.203 20.2368V27.6038H194.342V15.7309H197.012L197.108 17.0183C198.205 16.0011 199.619 15.4765 201.352 15.4448ZM224.381 22.621H213.438C213.549 23.4633 213.954 24.115 214.653 24.5759C215.369 25.0369 216.314 25.2673 217.491 25.2673C218.587 25.2673 219.477 25.1084 220.161 24.7905C220.844 24.4726 221.226 24.0435 221.305 23.5031H224.381C224.222 24.9018 223.538 25.9826 222.33 26.7455C221.138 27.5084 219.525 27.8899 217.491 27.8899C216.044 27.8899 214.789 27.6514 213.724 27.1746C212.675 26.6819 211.864 25.9905 211.292 25.1004C210.72 24.1945 210.434 23.1375 210.434 21.9296V21.4527C210.434 20.2289 210.72 19.164 211.292 18.258C211.864 17.3521 212.683 16.6607 213.748 16.1838C214.812 15.6911 216.06 15.4448 217.491 15.4448C219.652 15.4448 221.337 15.9693 222.545 17.0183C223.769 18.0673 224.381 19.5137 224.381 21.3574V22.621ZM217.467 18.0673C216.418 18.0673 215.551 18.258 214.868 18.6395C214.185 19.0209 213.74 19.5534 213.533 20.2368H221.281C221.091 19.5534 220.661 19.0209 219.994 18.6395C219.326 18.258 218.484 18.0673 217.467 18.0673Z" fill="url(#paint3_linear_865_5548)"></path> <path d="M76.1842 43.4376H73.646C73.4261 43.4376 73.2541 43.385 73.1298 43.2798C73.0151 43.1651 72.9577 43.0074 72.9577 42.8066V42.7349C72.9577 42.5341 73.0151 42.3812 73.1298 42.276C73.2541 42.1709 73.4261 42.1183 73.646 42.1183H80.2137C80.663 42.1183 80.8877 42.3238 80.8877 42.7349V42.8066C80.8877 43.0074 80.8303 43.1651 80.7156 43.2798C80.6009 43.385 80.4336 43.4376 80.2137 43.4376H77.6755V50.7796C77.6755 51.2289 77.4557 51.4536 77.0159 51.4536H76.8151C76.3945 51.4536 76.1842 51.2289 76.1842 50.7796V43.4376ZM81.9068 47.9833C81.9068 47.295 82.0598 46.6736 82.3657 46.1191C82.6716 45.5551 83.0923 45.1153 83.6276 44.7999C84.163 44.4844 84.7653 44.3266 85.4345 44.3266C86.0941 44.3266 86.6725 44.4748 87.1696 44.7712C87.6667 45.058 88.0539 45.4643 88.3311 45.9901C88.6084 46.5159 88.747 47.1182 88.747 47.7969V47.9116C88.747 48.0646 88.7135 48.1745 88.6466 48.2414C88.5893 48.2988 88.4793 48.3275 88.3168 48.3275H83.2261C83.2261 48.3848 83.2357 48.4709 83.2548 48.5856C83.36 49.1496 83.6181 49.6037 84.0292 49.9479C84.4498 50.2921 84.966 50.4641 85.5779 50.4641C86.1323 50.4641 86.5817 50.3638 86.9258 50.163C87.27 49.9527 87.5424 49.6707 87.7432 49.3169C87.7623 49.2978 87.834 49.3122 87.9583 49.36C88.0921 49.3982 88.2116 49.4747 88.3168 49.5894C88.4315 49.6946 88.4889 49.838 88.4889 50.0196C88.4889 50.1726 88.422 50.3399 88.2881 50.5215C88.1543 50.7031 87.9679 50.8704 87.7289 51.0234C87.1361 51.3962 86.4096 51.5827 85.5492 51.5827C84.8322 51.5827 84.1965 51.4345 83.642 51.1381C83.0971 50.8322 82.6716 50.4068 82.3657 49.8619C82.0598 49.3169 81.9068 48.6908 81.9068 47.9833ZM87.3704 47.3667C87.3321 46.7644 87.1409 46.2864 86.7968 45.9327C86.4526 45.579 85.9937 45.4021 85.4201 45.4021C84.8561 45.4021 84.3733 45.5886 83.9718 45.9614C83.5703 46.3247 83.3265 46.7931 83.2405 47.3667H87.3704ZM93.2687 47.9547L91.0173 44.9433C90.9982 44.9146 91.0221 44.8572 91.089 44.7712C91.1559 44.6851 91.2467 44.6087 91.3615 44.5417C91.4857 44.4653 91.6244 44.427 91.7773 44.427C91.9685 44.427 92.131 44.4748 92.2649 44.5704C92.4083 44.666 92.5421 44.8142 92.6664 45.015L94.2008 47.209L95.7065 45.015C95.955 44.623 96.2466 44.427 96.5812 44.427C96.7342 44.427 96.8728 44.4653 96.9971 44.5417C97.1213 44.6087 97.2169 44.6899 97.2839 44.7855C97.3603 44.8716 97.389 44.9241 97.3699 44.9433L95.0899 47.9547L97.3269 50.9374C97.346 50.966 97.3221 51.0282 97.2552 51.1238C97.1883 51.2098 97.0927 51.2911 96.9684 51.3676C96.8537 51.4345 96.715 51.4679 96.5525 51.4679C96.3709 51.4679 96.2084 51.4201 96.065 51.3245C95.9311 51.2194 95.8021 51.0712 95.6778 50.88L94.1434 48.7003L92.6521 50.8657C92.4035 51.2672 92.1071 51.4679 91.763 51.4679C91.61 51.4679 91.4714 51.4297 91.3471 51.3532C91.2228 51.2767 91.1272 51.1955 91.0603 51.1094C90.9934 51.0138 90.9695 50.9565 90.9886 50.9374L93.2687 47.9547ZM100.858 51.4536C100.428 51.4536 100.213 51.2289 100.213 50.7796V45.1153C100.213 44.6565 100.428 44.427 100.858 44.427H101.002C101.202 44.427 101.355 44.4796 101.46 44.5848C101.575 44.6899 101.633 44.8668 101.633 45.1153V47.3524H105.189V45.1153C105.189 44.6565 105.404 44.427 105.834 44.427H105.978C106.178 44.427 106.331 44.4796 106.436 44.5848C106.551 44.6899 106.609 44.8668 106.609 45.1153V50.7796C106.609 51.2289 106.398 51.4536 105.978 51.4536H105.834C105.404 51.4536 105.189 51.2289 105.189 50.7796V48.5282H101.633V50.7796C101.633 51.2289 101.422 51.4536 101.002 51.4536H100.858ZM115.705 44.427C115.935 44.427 116.112 44.5035 116.236 44.6565C116.36 44.7999 116.422 45.0054 116.422 45.2731V50.7653C116.422 51.2242 116.217 51.4536 115.806 51.4536H115.677C115.256 51.4536 115.046 51.2242 115.046 50.7653V46.3486L111.633 51.0091C111.508 51.1811 111.394 51.3006 111.289 51.3676C111.193 51.4249 111.04 51.4536 110.83 51.4536H110.715C110.495 51.4536 110.323 51.3819 110.199 51.2385C110.074 51.0855 110.012 50.8752 110.012 50.6075V45.1153C110.012 44.6565 110.218 44.427 110.629 44.427H110.772C111.193 44.427 111.403 44.6565 111.403 45.1153V49.3026L114.558 44.9863C114.711 44.776 114.845 44.6326 114.96 44.5561C115.084 44.47 115.251 44.427 115.461 44.427H115.705ZM125.762 50.8943C125.781 50.923 125.758 50.9852 125.691 51.0808C125.624 51.1764 125.523 51.2672 125.39 51.3532C125.265 51.4297 125.122 51.4679 124.959 51.4679C124.825 51.4679 124.696 51.4345 124.572 51.3676C124.448 51.3006 124.3 51.1764 124.128 50.9947L121.245 47.969V50.7796C121.245 51.2289 121.035 51.4536 120.614 51.4536H120.457C120.036 51.4536 119.826 51.2289 119.826 50.7796V45.1153C119.826 44.6565 120.041 44.427 120.471 44.427H120.614C120.815 44.427 120.968 44.4796 121.073 44.5848C121.188 44.6899 121.245 44.8668 121.245 45.1153V47.7396L123.912 44.9146C124.075 44.7329 124.223 44.6087 124.357 44.5417C124.491 44.4653 124.62 44.427 124.744 44.427C124.897 44.427 125.036 44.4653 125.16 44.5417C125.284 44.6182 125.375 44.7043 125.433 44.7999C125.49 44.8955 125.509 44.9576 125.49 44.9863L122.794 47.7969L125.762 50.8943ZM127.963 49.5894C127.963 48.8055 128.341 48.2271 129.096 47.8543C129.851 47.4814 131.017 47.2807 132.595 47.252H132.781V47.1086C132.781 46.5828 132.633 46.1813 132.337 45.904C132.05 45.6268 131.629 45.4882 131.075 45.4882C130.587 45.4882 130.176 45.5981 129.842 45.818C129.517 46.0283 129.268 46.3103 129.096 46.6641C129.096 46.6832 129.015 46.6784 128.852 46.6497C128.69 46.6115 128.541 46.5398 128.408 46.4346C128.283 46.3295 128.221 46.1765 128.221 45.9757C128.221 45.6889 128.379 45.4021 128.694 45.1153C128.953 44.8859 129.292 44.6995 129.713 44.5561C130.133 44.4031 130.621 44.3266 131.175 44.3266C132.15 44.3266 132.896 44.5656 133.412 45.0436C133.929 45.5216 134.187 46.2004 134.187 47.0799V51.3102C134.187 51.3484 134.129 51.3819 134.015 51.4106C133.909 51.4488 133.795 51.4679 133.67 51.4679C133.231 51.4679 132.958 51.2576 132.853 50.837C132.815 50.6649 132.796 50.5072 132.796 50.3638C132.528 50.7366 132.174 51.0282 131.734 51.2385C131.304 51.4488 130.831 51.554 130.315 51.554C129.588 51.554 129.015 51.3771 128.594 51.0234C128.173 50.6601 127.963 50.1821 127.963 49.5894ZM132.781 48.1411L132.394 48.1554C131.362 48.1936 130.597 48.3179 130.1 48.5282C129.603 48.7386 129.354 49.0732 129.354 49.532C129.354 49.838 129.469 50.0817 129.698 50.2634C129.928 50.445 130.248 50.5358 130.659 50.5358C131.28 50.5358 131.787 50.3638 132.179 50.0196C132.581 49.6659 132.781 49.2166 132.781 48.6716V48.1411ZM141.3 51.4679C141.166 51.4679 141.032 51.444 140.899 51.3962C140.774 51.3389 140.669 51.2767 140.583 51.2098C140.507 51.1333 140.478 51.0712 140.497 51.0234L143.795 42.5055C143.853 42.3429 143.958 42.2234 144.111 42.147C144.264 42.0705 144.498 42.0322 144.813 42.0322C145.138 42.0322 145.373 42.0705 145.516 42.147C145.669 42.2234 145.774 42.3429 145.832 42.5055L149.158 51.0234C149.178 51.0616 149.144 51.119 149.058 51.1955C148.982 51.2624 148.876 51.3245 148.743 51.3819C148.609 51.4393 148.475 51.4679 148.341 51.4679C147.93 51.4679 147.638 51.2385 147.466 50.7796L146.649 48.6716H142.935L142.118 50.794C141.955 51.2433 141.683 51.4679 141.3 51.4679ZM144.785 43.5523L143.293 47.4814H146.276L144.785 43.5523ZM155.696 44.3266C156.308 44.3266 156.857 44.4748 157.345 44.7712C157.842 45.0675 158.229 45.493 158.506 46.0474C158.784 46.5924 158.922 47.2233 158.922 47.9403C158.922 48.6477 158.784 49.2787 158.506 49.8332C158.229 50.3877 157.842 50.8179 157.345 51.1238C156.848 51.4297 156.284 51.5827 155.653 51.5827C155.108 51.5827 154.63 51.4632 154.219 51.2242C153.808 50.9756 153.497 50.6649 153.287 50.2921V53.5329C153.287 53.9822 153.076 54.2069 152.656 54.2069H152.498C152.077 54.2069 151.867 53.9822 151.867 53.5329V44.5848C151.867 44.5561 151.92 44.5226 152.025 44.4844C152.13 44.4461 152.249 44.427 152.383 44.427C152.852 44.427 153.134 44.6899 153.229 45.2157C153.258 45.3591 153.272 45.493 153.272 45.6172C153.836 44.7568 154.644 44.3266 155.696 44.3266ZM155.395 50.4068C156.035 50.4068 156.551 50.1821 156.943 49.7328C157.345 49.2835 157.546 48.6908 157.546 47.9547C157.546 47.4862 157.455 47.0656 157.273 46.6927C157.092 46.3199 156.838 46.0283 156.513 45.818C156.198 45.6077 155.834 45.5025 155.423 45.5025C154.907 45.5025 154.463 45.6316 154.09 45.8897C153.726 46.1383 153.454 46.4872 153.272 46.9365V48.3848C153.272 48.7672 153.368 49.1114 153.559 49.4173C153.75 49.7232 154.008 49.967 154.333 50.1487C154.659 50.3207 155.012 50.4068 155.395 50.4068ZM165.733 44.3266C166.345 44.3266 166.895 44.4748 167.382 44.7712C167.879 45.0675 168.267 45.493 168.544 46.0474C168.821 46.5924 168.96 47.2233 168.96 47.9403C168.96 48.6477 168.821 49.2787 168.544 49.8332C168.267 50.3877 167.879 50.8179 167.382 51.1238C166.885 51.4297 166.321 51.5827 165.69 51.5827C165.145 51.5827 164.667 51.4632 164.256 51.2242C163.845 50.9756 163.534 50.6649 163.324 50.2921V53.5329C163.324 53.9822 163.114 54.2069 162.693 54.2069H162.535C162.115 54.2069 161.904 53.9822 161.904 53.5329V44.5848C161.904 44.5561 161.957 44.5226 162.062 44.4844C162.167 44.4461 162.287 44.427 162.421 44.427C162.889 44.427 163.171 44.6899 163.267 45.2157C163.295 45.3591 163.31 45.493 163.31 45.6172C163.874 44.7568 164.682 44.3266 165.733 44.3266ZM165.432 50.4068C166.073 50.4068 166.589 50.1821 166.981 49.7328C167.382 49.2835 167.583 48.6908 167.583 47.9547C167.583 47.4862 167.492 47.0656 167.311 46.6927C167.129 46.3199 166.876 46.0283 166.551 45.818C166.235 45.6077 165.872 45.5025 165.461 45.5025C164.944 45.5025 164.5 45.6316 164.127 45.8897C163.764 46.1383 163.491 46.4872 163.31 46.9365V48.3848C163.31 48.7672 163.405 49.1114 163.597 49.4173C163.788 49.7232 164.046 49.967 164.371 50.1487C164.696 50.3207 165.05 50.4068 165.432 50.4068ZM172.644 51.4536C172.214 51.4536 171.999 51.2289 171.999 50.7796V41.7024C171.999 41.6737 172.052 41.6403 172.157 41.602C172.272 41.5638 172.391 41.5447 172.515 41.5447C173.118 41.5447 173.419 41.951 173.419 42.7636V50.7796C173.419 51.2289 173.209 51.4536 172.788 51.4536H172.644ZM176.48 47.9833C176.48 47.295 176.633 46.6736 176.939 46.1191C177.245 45.5551 177.665 45.1153 178.201 44.7999C178.736 44.4844 179.338 44.3266 180.008 44.3266C180.667 44.3266 181.246 44.4748 181.743 44.7712C182.24 45.058 182.627 45.4643 182.904 45.9901C183.182 46.5159 183.32 47.1182 183.32 47.7969V47.9116C183.32 48.0646 183.287 48.1745 183.22 48.2414C183.162 48.2988 183.052 48.3275 182.89 48.3275H177.799C177.799 48.3848 177.809 48.4709 177.828 48.5856C177.933 49.1496 178.191 49.6037 178.602 49.9479C179.023 50.2921 179.539 50.4641 180.151 50.4641C180.705 50.4641 181.155 50.3638 181.499 50.163C181.843 49.9527 182.116 49.6707 182.316 49.3169C182.335 49.2978 182.407 49.3122 182.531 49.36C182.665 49.3982 182.785 49.4747 182.89 49.5894C183.005 49.6946 183.062 49.838 183.062 50.0196C183.062 50.1726 182.995 50.3399 182.861 50.5215C182.727 50.7031 182.541 50.8704 182.302 51.0234C181.709 51.3962 180.983 51.5827 180.122 51.5827C179.405 51.5827 178.77 51.4345 178.215 51.1381C177.67 50.8322 177.245 50.4068 176.939 49.8619C176.633 49.3169 176.48 48.6908 176.48 47.9833ZM181.944 47.3667C181.905 46.7644 181.714 46.2864 181.37 45.9327C181.026 45.579 180.567 45.4021 179.993 45.4021C179.429 45.4021 178.946 45.5886 178.545 45.9614C178.143 46.3247 177.9 46.7931 177.814 47.3667H181.944Z" fill="white"></path> </g> <defs> <filter id="filter0_f_865_5548" x="-2.0459" y="-1.49866" width="63.1855" height="63.1855" filterUnits="userSpaceOnUse" color-interpolation-filters="sRGB"> <feFlood flood-opacity="0" result="BackgroundImageFix"></feFlood> <feBlend mode="normal" in="SourceGraphic" in2="BackgroundImageFix" result="shape"></feBlend> <feGaussianBlur stdDeviation="5" result="effect1_foregroundBlur_865_5548"></feGaussianBlur> </filter> <linearGradient id="paint0_linear_865_5548" x1="45.9221" y1="79.3131" x2="84.9942" y2="93.6188" gradientUnits="userSpaceOnUse"> <stop stop-color="#3D73EB"></stop> <stop offset="1" stop-color="#DE8FFF"></stop> </linearGradient> <linearGradient id="paint1_linear_865_5548" x1="54.0723" y1="81.3005" x2="100.248" y2="57.093" gradientUnits="userSpaceOnUse"> <stop stop-color="#3D73EB"></stop> <stop offset="1" stop-color="#DE8FFF"></stop> </linearGradient> <linearGradient id="paint2_linear_865_5548" x1="96.3826" y1="77.7664" x2="52.9149" y2="89.0404" gradientUnits="userSpaceOnUse"> <stop stop-color="#3D73EB"></stop> <stop offset="1" stop-color="#DE8FFF"></stop> </linearGradient> <linearGradient id="paint3_linear_865_5548" x1="75.0065" y1="27.4568" x2="97.66" y2="-37.4378" gradientUnits="userSpaceOnUse"> <stop stop-color="#3D73EB"></stop> <stop offset="1" stop-color="#DE8FFF"></stop> </linearGradient> <clipPath id="clip0_865_5548"> <rect width="229.307" height="58.8222" fill="white" transform="translate(0 0.0888672)"></rect> </clipPath> </defs> </svg> 